QuixoticSeven-Semibold.ufo
<glyph name="exclam" format="2">
  <advance width="633"/>
  <unicode hex="0021"/>
  <outline>
    <contour>
      <point x="563.0" y="0.0" type="curve" smooth="yes"/>
      <point x="563.0" y="39.0"/>
      <point x="594.0" y="70.0"/>
      <point x="633.0" y="70.0" type="curve" smooth="yes"/>
      <point x="672.0" y="70.0"/>
      <point x="703.0" y="39.0"/>
      <point x="703.0" y="0.0" type="curve" smooth="yes"/>
      <point x="703.0" y="-39.0"/>
      <point x="672.0" y="-70.0"/>
      <point x="633.0" y="-70.0" type="curve" smooth="yes"/>
      <point x="594.0" y="-70.0"/>
      <point x="563.0" y="-39.0"/>
    </contour>
    <contour>
      <point x="497.0" y="52.0" type="line" smooth="yes"/>
      <point x="423.0" y="126.0" type="line" smooth="yes"/>
      <point x="423.0" y="312.0" type="line" smooth="yes"/>
      <point x="497.0" y="386.0" type="line" smooth="yes"/>
      <point x="535.0" y="348.0" type="line" smooth="yes"/>
      <point x="535.0" y="90.0" type="line" smooth="yes"/>
    </contour>
    <contour>
      <point x="497.0" y="414.0" type="line" smooth="yes"/>
      <point x="423.0" y="488.0" type="line" smooth="yes"/>
      <point x="423.0" y="674.0" type="line" smooth="yes"/>
      <point x="497.0" y="748.0" type="line" smooth="yes"/>
      <point x="535.0" y="710.0" type="line" smooth="yes"/>
      <point x="535.0" y="452.0" type="line" smooth="yes"/>
    </contour>
  </outline>
</glyph>
<glyph name="quotedbl" format="2">
  <advance width="633"/>
  <unicode hex="0022"/>
  <outline>
    <contour>
      <point x="136.0" y="414.0" type="line" smooth="yes"/>
      <point x="98.0" y="452.0" type="line" smooth="yes"/>
      <point x="98.0" y="710.0" type="line" smooth="yes"/>
      <point x="136.0" y="748.0" type="line" smooth="yes"/>
      <point x="210.0" y="674.0" type="line" smooth="yes"/>
      <point x="210.0" y="488.0" type="line" smooth="yes"/>
    </contour>
    <contour>
      <point x="497.0" y="414.0" type="line" smooth="yes"/>
      <point x="423.0" y="488.0" type="line" smooth="yes"/>
      <point x="423.0" y="674.0" type="line" smooth="yes"/>
      <point x="497.0" y="748.0" type="line" smooth="yes"/>
      <point x="535.0" y="710.0" type="line" smooth="yes"/>
      <point x="535.0" y="452.0" type="line" smooth="yes"/>
    </contour>
  </outline>
</glyph>
<glyph name="percent" format="2">
  <advance width="633"/>
  <unicode hex="0025"/>
  <outline>
    <contour>
      <point x="563.0" y="0.0" type="curve" smooth="yes"/>
      <point x="563.0" y="39.0"/>
      <point x="594.0" y="70.0"/>
      <point x="633.0" y="70.0" type="curve" smooth="yes"/>
      <point x="672.0" y="70.0"/>
      <point x="703.0" y="39.0"/>
      <point x="703.0" y="0.0" type="curve" smooth="yes"/>
      <point x="703.0" y="-39.0"/>
      <point x="672.0" y="-70.0"/>
      <point x="633.0" y="-70.0" type="curve" smooth="yes"/>
      <point x="594.0" y="-70.0"/>
      <point x="563.0" y="-39.0"/>
    </contour>
    <contour>
      <point x="150.0" y="400.0" type="line" smooth="yes"/>
      <point x="206.0" y="456.0" type="line" smooth="yes"/>
      <point x="427.0" y="456.0" type="line" smooth="yes"/>
      <point x="483.0" y="400.0" type="line" smooth="yes"/>
      <point x="427.0" y="344.0" type="line" smooth="yes"/>
      <point x="206.0" y="344.0" type="line" smooth="yes"/>
    </contour>
    <contour>
      <point x="136.0" y="52.0" type="line" smooth="yes"/>
      <point x="98.0" y="90.0" type="line" smooth="yes"/>
      <point x="98.0" y="348.0" type="line" smooth="yes"/>
      <point x="136.0" y="386.0" type="line" smooth="yes"/>
      <point x="210.0" y="312.0" type="line" smooth="yes"/>
      <point x="210.0" y="126.0" type="line" smooth="yes"/>
    </contour>
    <contour>
      <point x="497.0" y="414.0" type="line" smooth="yes"/>
      <point x="423.0" y="488.0" type="line" smooth="yes"/>
      <point x="423.0" y="674.0" type="line" smooth="yes"/>
      <point x="497.0" y="748.0" type="line" smooth="yes"/>
      <point x="535.0" y="710.0" type="line" smooth="yes"/>
      <point x="535.0" y="452.0" type="line" smooth="yes"/>
    </contour>
  </outline>
</glyph>
<glyph name="quotesingle" format="2">
  <advance width="633"/>
  <unicode hex="0027"/>
  <outline>
    <contour>
      <point x="136.0" y="414.0" type="line" smooth="yes"/>
      <point x="98.0" y="452.0" type="line" smooth="yes"/>
      <point x="98.0" y="710.0" type="line" smooth="yes"/>
      <point x="136.0" y="748.0" type="line" smooth="yes"/>
      <point x="210.0" y="674.0" type="line" smooth="yes"/>
      <point x="210.0" y="488.0" type="line" smooth="yes"/>
    </contour>
  </outline>
</glyph>
<glyph name="parenleft" format="2">
  <advance width="633"/>
  <unicode hex="0028"/>
  <outline>
    <contour>
      <point x="136.0" y="414.0" type="line" smooth="yes"/>
      <point x="98.0" y="452.0" type="line" smooth="yes"/>
      <point x="98.0" y="710.0" type="line" smooth="yes"/>
      <point x="136.0" y="748.0" type="line" smooth="yes"/>
      <point x="210.0" y="674.0" type="line" smooth="yes"/>
      <point x="210.0" y="488.0" type="line" smooth="yes"/>
    </contour>
    <contour>
      <point x="136.0" y="52.0" type="line" smooth="yes"/>
      <point x="98.0" y="90.0" type="line" smooth="yes"/>
      <point x="98.0" y="348.0" type="line" smooth="yes"/>
      <point x="136.0" y="386.0" type="line" smooth="yes"/>
      <point x="210.0" y="312.0" type="line" smooth="yes"/>
      <point x="210.0" y="126.0" type="line" smooth="yes"/>
    </contour>
    <contour>
      <point x="150.0" y="38.0" type="line" smooth="yes"/>
      <point x="224.0" y="112.0" type="line" smooth="yes"/>
      <point x="409.0" y="112.0" type="line" smooth="yes"/>
      <point x="483.0" y="38.0" type="line" smooth="yes"/>
      <point x="445.0" y="0.0" type="line" smooth="yes"/>
      <point x="188.0" y="0.0" type="line" smooth="yes"/>
    </contour>
    <contour>
      <point x="483.0" y="762.0" type="line" smooth="yes"/>
      <point x="409.0" y="688.0" type="line" smooth="yes"/>
      <point x="224.0" y="688.0" type="line" smooth="yes"/>
      <point x="150.0" y="762.0" type="line" smooth="yes"/>
      <point x="188.0" y="800.0" type="line" smooth="yes"/>
      <point x="445.0" y="800.0" type="line" smooth="yes"/>
    </contour>
  </outline>
</glyph>
<glyph name="comma" format="2">
  <advance width="633"/>
  <unicode hex="002C"/>
  <outline>
    <contour>
      <point x="136.0" y="52.0" type="line" smooth="yes"/>
      <point x="98.0" y="90.0" type="line" smooth="yes"/>
      <point x="98.0" y="348.0" type="line" smooth="yes"/>
      <point x="136.0" y="386.0" type="line" smooth="yes"/>
      <point x="210.0" y="312.0" type="line" smooth="yes"/>
      <point x="210.0" y="126.0" type="line" smooth="yes"/>
    </contour>
  </outline>
</glyph>
<glyph name="hyphen" format="2">
  <advance width="633"/>
  <unicode hex="002D"/>
  <outline>
    <contour>
      <point x="150.0" y="400.0" type="line" smooth="yes"/>
      <point x="206.0" y="456.0" type="line" smooth="yes"/>
      <point x="427.0" y="456.0" type="line" smooth="yes"/>
      <point x="483.0" y="400.0" type="line" smooth="yes"/>
      <point x="427.0" y="344.0" type="line" smooth="yes"/>
      <point x="206.0" y="344.0" type="line" smooth="yes"/>
    </contour>
  </outline>
</glyph>
<glyph name="two" format="2">
  <advance width="583"/>
  <unicode hex="0032"/>
  <outline>
    <contour>
      <point x="124.0" y="400.0" type="line" smooth="yes"/>
      <point x="180.0" y="456.0" type="line" smooth="yes"/>
      <point x="403.0" y="456.0" type="line" smooth="yes"/>
      <point x="459.0" y="400.0" type="line" smooth="yes"/>
      <point x="403.0" y="344.0" type="line" smooth="yes"/>
      <point x="180.0" y="344.0" type="line" smooth="yes"/>
    </contour>
    <contour>
      <point x="110.0" y="52.0" type="line" smooth="yes"/>
      <point x="72.0" y="90.0" type="line" smooth="yes"/>
      <point x="72.0" y="348.0" type="line" smooth="yes"/>
      <point x="110.0" y="386.0" type="line" smooth="yes"/>
      <point x="184.0" y="312.0" type="line" smooth="yes"/>
      <point x="184.0" y="126.0" type="line" smooth="yes"/>
    </contour>
    <contour>
      <point x="124.0" y="38.0" type="line" smooth="yes"/>
      <point x="198.0" y="112.0" type="line" smooth="yes"/>
      <point x="385.0" y="112.0" type="line" smooth="yes"/>
      <point x="459.0" y="38.0" type="line" smooth="yes"/>
      <point x="421.0" y="0.0" type="line" smooth="yes"/>
      <point x="162.0" y="0.0" type="line" smooth="yes"/>
    </contour>
    <contour>
      <point x="473.0" y="414.0" type="line" smooth="yes"/>
      <point x="399.0" y="488.0" type="line" smooth="yes"/>
      <point x="399.0" y="674.0" type="line" smooth="yes"/>
      <point x="473.0" y="748.0" type="line" smooth="yes"/>
      <point x="511.0" y="710.0" type="line" smooth="yes"/>
      <point x="511.0" y="452.0" type="line" smooth="yes"/>
    </contour>
    <contour>
      <point x="459.0" y="762.0" type="line" smooth="yes"/>
      <point x="385.0" y="688.0" type="line" smooth="yes"/>
      <point x="198.0" y="688.0" type="line" smooth="yes"/>
      <point x="124.0" y="762.0" type="line" smooth="yes"/>
      <point x="162.0" y="800.0" type="line" smooth="yes"/>
      <point x="421.0" y="800.0" type="line" smooth="yes"/>
    </contour>
  </outline>
</glyph>
<glyph name="three" format="2">
  <advance width="633"/>
  <unicode hex="0033"/>
  <outline>
    <contour>
      <point x="150.0" y="400.0" type="line" smooth="yes"/>
      <point x="206.0" y="456.0" type="line" smooth="yes"/>
      <point x="427.0" y="456.0" type="line" smooth="yes"/>
      <point x="483.0" y="400.0" type="line" smooth="yes"/>
      <point x="427.0" y="344.0" type="line" smooth="yes"/>
      <point x="206.0" y="344.0" type="line" smooth="yes"/>
    </contour>
    <contour>
      <point x="150.0" y="38.0" type="line" smooth="yes"/>
      <point x="224.0" y="112.0" type="line" smooth="yes"/>
      <point x="409.0" y="112.0" type="line" smooth="yes"/>
      <point x="483.0" y="38.0" type="line" smooth="yes"/>
      <point x="445.0" y="0.0" type="line" smooth="yes"/>
      <point x="188.0" y="0.0" type="line" smooth="yes"/>
    </contour>
    <contour>
      <point x="497.0" y="52.0" type="line" smooth="yes"/>
      <point x="423.0" y="126.0" type="line" smooth="yes"/>
      <point x="423.0" y="312.0" type="line" smooth="yes"/>
      <point x="497.0" y="386.0" type="line" smooth="yes"/>
      <point x="535.0" y="348.0" type="line" smooth="yes"/>
      <point x="535.0" y="90.0" type="line" smooth="yes"/>
    </contour>
    <contour>
      <point x="497.0" y="414.0" type="line" smooth="yes"/>
      <point x="423.0" y="488.0" type="line" smooth="yes"/>
      <point x="423.0" y="674.0" type="line" smooth="yes"/>
      <point x="497.0" y="748.0" type="line" smooth="yes"/>
      <point x="535.0" y="710.0" type="line" smooth="yes"/>
      <point x="535.0" y="452.0" type="line" smooth="yes"/>
    </contour>
    <contour>
      <point x="483.0" y="762.0" type="line" smooth="yes"/>
      <point x="409.0" y="688.0" type="line" smooth="yes"/>
      <point x="224.0" y="688.0" type="line" smooth="yes"/>
      <point x="150.0" y="762.0" type="line" smooth="yes"/>
      <point x="188.0" y="800.0" type="line" smooth="yes"/>
      <point x="445.0" y="800.0" type="line" smooth="yes"/>
    </contour>
  </outline>
</glyph>
<glyph name="equal" format="2">
  <advance width="633"/>
  <unicode hex="003D"/>
  <outline>
    <contour>
      <point x="150.0" y="400.0" type="line" smooth="yes"/>
      <point x="206.0" y="456.0" type="line" smooth="yes"/>
      <point x="427.0" y="456.0" type="line" smooth="yes"/>
      <point x="483.0" y="400.0" type="line" smooth="yes"/>
      <point x="427.0" y="344.0" type="line" smooth="yes"/>
      <point x="206.0" y="344.0" type="line" smooth="yes"/>
    </contour>
    <contour>
      <point x="150.0" y="38.0" type="line" smooth="yes"/>
      <point x="224.0" y="112.0" type="line" smooth="yes"/>
      <point x="409.0" y="112.0" type="line" smooth="yes"/>
      <point x="483.0" y="38.0" type="line" smooth="yes"/>
      <point x="445.0" y="0.0" type="line" smooth="yes"/>
      <point x="188.0" y="0.0" type="line" smooth="yes"/>
    </contour>
  </outline>
</glyph>
<glyph name="N" format="2">
  <advance width="583"/>
  <unicode hex="004E"/>
  <outline>
    <contour>
      <point x="110.0" y="414.0" type="line" smooth="yes"/>
      <point x="72.0" y="452.0" type="line" smooth="yes"/>
      <point x="72.0" y="710.0" type="line" smooth="yes"/>
      <point x="110.0" y="748.0" type="line" smooth="yes"/>
      <point x="184.0" y="674.0" type="line" smooth="yes"/>
      <point x="184.0" y="488.0" type="line" smooth="yes"/>
    </contour>
    <contour>
      <point x="110.0" y="52.0" type="line" smooth="yes"/>
      <point x="72.0" y="90.0" type="line" smooth="yes"/>
      <point x="72.0" y="348.0" type="line" smooth="yes"/>
      <point x="110.0" y="386.0" type="line" smooth="yes"/>
      <point x="184.0" y="312.0" type="line" smooth="yes"/>
      <point x="184.0" y="126.0" type="line" smooth="yes"/>
    </contour>
    <contour>
      <point x="473.0" y="52.0" type="line" smooth="yes"/>
      <point x="399.0" y="126.0" type="line" smooth="yes"/>
      <point x="399.0" y="312.0" type="line" smooth="yes"/>
      <point x="473.0" y="386.0" type="line" smooth="yes"/>
      <point x="511.0" y="348.0" type="line" smooth="yes"/>
      <point x="511.0" y="90.0" type="line" smooth="yes"/>
    </contour>
    <contour>
      <point x="473.0" y="414.0" type="line" smooth="yes"/>
      <point x="399.0" y="488.0" type="line" smooth="yes"/>
      <point x="399.0" y="674.0" type="line" smooth="yes"/>
      <point x="473.0" y="748.0" type="line" smooth="yes"/>
      <point x="511.0" y="710.0" type="line" smooth="yes"/>
      <point x="511.0" y="452.0" type="line" smooth="yes"/>
    </contour>
    <contour>
      <point x="459.0" y="762.0" type="line" smooth="yes"/>
      <point x="385.0" y="688.0" type="line" smooth="yes"/>
      <point x="198.0" y="688.0" type="line" smooth="yes"/>
      <point x="124.0" y="762.0" type="line" smooth="yes"/>
      <point x="162.0" y="800.0" type="line" smooth="yes"/>
      <point x="421.0" y="800.0" type="line" smooth="yes"/>
    </contour>
  </outline>
</glyph>
<glyph name="c" format="2">
  <advance width="583"/>
  <unicode hex="0063"/>
  <outline>
    <contour>
      <point x="124.0" y="400.0" type="line" smooth="yes"/>
      <point x="180.0" y="456.0" type="line" smooth="yes"/>
      <point x="403.0" y="456.0" type="line" smooth="yes"/>
      <point x="459.0" y="400.0" type="line" smooth="yes"/>
      <point x="403.0" y="344.0" type="line" smooth="yes"/>
      <point x="180.0" y="344.0" type="line" smooth="yes"/>
    </contour>
    <contour>
      <point x="110.0" y="52.0" type="line" smooth="yes"/>
      <point x="72.0" y="90.0" type="line" smooth="yes"/>
      <point x="72.0" y="348.0" type="line" smooth="yes"/>
      <point x="110.0" y="386.0" type="line" smooth="yes"/>
      <point x="184.0" y="312.0" type="line" smooth="yes"/>
      <point x="184.0" y="126.0" type="line" smooth="yes"/>
    </contour>
    <contour>
      <point x="124.0" y="38.0" type="line" smooth="yes"/>
      <point x="198.0" y="112.0" type="line" smooth="yes"/>
      <point x="385.0" y="112.0" type="line" smooth="yes"/>
      <point x="459.0" y="38.0" type="line" smooth="yes"/>
      <point x="421.0" y="0.0" type="line" smooth="yes"/>
      <point x="162.0" y="0.0" type="line" smooth="yes"/>
    </contour>
  </outline>
</glyph>
<glyph name="j" format="2">
  <advance width="583"/>
  <unicode hex="006A"/>
  <outline>
    <contour>
      <point x="124.0" y="38.0" type="line" smooth="yes"/>
      <point x="198.0" y="112.0" type="line" smooth="yes"/>
      <point x="385.0" y="112.0" type="line" smooth="yes"/>
      <point x="459.0" y="38.0" type="line" smooth="yes"/>
      <point x="421.0" y="0.0" type="line" smooth="yes"/>
      <point x="162.0" y="0.0" type="line" smooth="yes"/>
    </contour>
    <contour>
      <point x="473.0" y="52.0" type="line" smooth="yes"/>
      <point x="399.0" y="126.0" type="line" smooth="yes"/>
      <point x="399.0" y="312.0" type="line" smooth="yes"/>
      <point x="473.0" y="386.0" type="line" smooth="yes"/>
      <point x="511.0" y="348.0" type="line" smooth="yes"/>
      <point x="511.0" y="90.0" type="line" smooth="yes"/>
    </contour>
    <contour>
      <point x="473.0" y="414.0" type="line" smooth="yes"/>
      <point x="399.0" y="488.0" type="line" smooth="yes"/>
      <point x="399.0" y="674.0" type="line" smooth="yes"/>
      <point x="473.0" y="748.0" type="line" smooth="yes"/>
      <point x="511.0" y="710.0" type="line" smooth="yes"/>
      <point x="511.0" y="452.0" type="line" smooth="yes"/>
    </contour>
  </outline>
</glyph>
<glyph name="asciitilde" format="2">
  <advance width="633"/>
  <unicode hex="007E"/>
  <outline>
    <contour>
      <point x="483.0" y="762.0" type="line" smooth="yes"/>
      <point x="409.0" y="688.0" type="line" smooth="yes"/>
      <point x="224.0" y="688.0" type="line" smooth="yes"/>
      <point x="150.0" y="762.0" type="line" smooth="yes"/>
      <point x="188.0" y="800.0" type="line" smooth="yes"/>
      <point x="445.0" y="800.0" type="line" smooth="yes"/>
    </contour>
  </outline>
</glyph>
<glyph name="quoteleft" format="2">
  <advance width="633"/>
  <unicode hex="2018"/>
  <outline>
    <contour>
      <point x="497.0" y="414.0" type="line" smooth="yes"/>
      <point x="423.0" y="488.0" type="line" smooth="yes"/>
      <point x="423.0" y="674.0" type="line" smooth="yes"/>
      <point x="497.0" y="748.0" type="line" smooth="yes"/>
      <point x="535.0" y="710.0" type="line" smooth="yes"/>
      <point x="535.0" y="452.0" type="line" smooth="yes"/>
    </contour>
  </outline>
</glyph>
<glyph name="ellipsis" format="2">
  <advance width="583"/>
  <unicode hex="2026"/>
  <outline>
    <contour>
      <point x="513.0" y="0.0" type="curve" smooth="yes"/>
      <point x="513.0" y="39.0"/>
      <point x="544.0" y="70.0"/>
      <point x="583.0" y="70.0" type="curve" smooth="yes"/>
      <point x="622.0" y="70.0"/>
      <point x="653.0" y="39.0"/>
      <point x="653.0" y="0.0" type="curve" smooth="yes"/>
      <point x="653.0" y="-39.0"/>
      <point x="622.0" y="-70.0"/>
      <point x="583.0" y="-70.0" type="curve" smooth="yes"/>
      <point x="544.0" y="-70.0"/>
      <point x="513.0" y="-39.0"/>
    </contour>
    <contour>
      <point x="110.0" y="52.0" type="line" smooth="yes"/>
      <point x="72.0" y="90.0" type="line" smooth="yes"/>
      <point x="72.0" y="348.0" type="line" smooth="yes"/>
      <point x="110.0" y="386.0" type="line" smooth="yes"/>
      <point x="184.0" y="312.0" type="line" smooth="yes"/>
      <point x="184.0" y="126.0" type="line" smooth="yes"/>
    </contour>
    <contour>
      <point x="473.0" y="52.0" type="line" smooth="yes"/>
      <point x="399.0" y="126.0" type="line" smooth="yes"/>
      <point x="399.0" y="312.0" type="line" smooth="yes"/>
      <point x="473.0" y="386.0" type="line" smooth="yes"/>
      <point x="511.0" y="348.0" type="line" smooth="yes"/>
      <point x="511.0" y="90.0" type="line" smooth="yes"/>
    </contour>
  </outline>
</glyph>
<glyph name="unie663" format="2">
  <advance width="633"/>
  <unicode hex="E663"/>
  <outline>
    <contour>
      <point x="150.0" y="400.0" type="line" smooth="yes"/>
      <point x="206.0" y="456.0" type="line" smooth="yes"/>
      <point x="427.0" y="456.0" type="line" smooth="yes"/>
      <point x="483.0" y="400.0" type="line" smooth="yes"/>
      <point x="427.0" y="344.0" type="line" smooth="yes"/>
      <point x="206.0" y="344.0" type="line" smooth="yes"/>
    </contour>
    <contour>
      <point x="136.0" y="414.0" type="line" smooth="yes"/>
      <point x="98.0" y="452.0" type="line" smooth="yes"/>
      <point x="98.0" y="710.0" type="line" smooth="yes"/>
      <point x="136.0" y="748.0" type="line" smooth="yes"/>
      <point x="210.0" y="674.0" type="line" smooth="yes"/>
      <point x="210.0" y="488.0" type="line" smooth="yes"/>
    </contour>
    <contour>
      <point x="136.0" y="52.0" type="line" smooth="yes"/>
      <point x="98.0" y="90.0" type="line" smooth="yes"/>
      <point x="98.0" y="348.0" type="line" smooth="yes"/>
      <point x="136.0" y="386.0" type="line" smooth="yes"/>
      <point x="210.0" y="312.0" type="line" smooth="yes"/>
      <point x="210.0" y="126.0" type="line" smooth="yes"/>
    </contour>
    <contour>
      <point x="497.0" y="414.0" type="line" smooth="yes"/>
      <point x="423.0" y="488.0" type="line" smooth="yes"/>
      <point x="423.0" y="674.0" type="line" smooth="yes"/>
      <point x="497.0" y="748.0" type="line" smooth="yes"/>
      <point x="535.0" y="710.0" type="line" smooth="yes"/>
      <point x="535.0" y="452.0" type="line" smooth="yes"/>
    </contour>
  </outline>
</glyph>
<glyph name="segment_g" format="2">
  <outline>
    <contour>
      <point x="150.0" y="400.0" type="line" smooth="yes"/>
      <point x="206.0" y="456.0" type="line" smooth="yes"/>
      <point x="427.0" y="456.0" type="line" smooth="yes"/>
      <point x="483.0" y="400.0" type="line" smooth="yes"/>
      <point x="427.0" y="344.0" type="line" smooth="yes"/>
      <point x="206.0" y="344.0" type="line" smooth="yes"/>
    </contour>
  </outline>
</glyph>
<glyph name="segment_h" format="2">
  <outline>
    <contour>
      <point x="230.0" y="668.0" type="line" smooth="yes"/>
      <point x="240.0" y="668.0" type="line" smooth="yes"/>
      <point x="241.0" y="684.0" type="line" smooth="yes"/>
      <point x="241.0" y="476.0" type="line" smooth="yes"/>
      <point x="231.0" y="476.0" type="line" smooth="yes"/>
      <point x="230.0" y="460.0" type="line" smooth="yes"/>
    </contour>
  </outline>
</glyph>
<glyph name="segment_i" format="2">
  <outline>
    <contour>
      <point x="260.0" y="668.0" type="line" smooth="yes"/>
      <point x="372.0" y="668.0" type="line" smooth="yes"/>
      <point x="372.0" y="470.0" type="line" smooth="yes"/>
      <point x="316.0" y="414.0" type="line" smooth="yes"/>
      <point x="260.0" y="470.0" type="line" smooth="yes"/>
    </contour>
  </outline>
</glyph>
<glyph name="segment_j" format="2">
  <outline>
    <contour>
      <point x="403.0" y="668.0" type="line" smooth="yes"/>
      <point x="403.0" y="460.0" type="line" smooth="yes"/>
      <point x="402.0" y="476.0" type="line" smooth="yes"/>
      <point x="392.0" y="476.0" type="line" smooth="yes"/>
      <point x="392.0" y="684.0" type="line" smooth="yes"/>
      <point x="393.0" y="668.0" type="line" smooth="yes"/>
    </contour>
  </outline>
</glyph>
<glyph name="segment_k" format="2">
  <advance height="132" width="230"/>
  <outline>
    <contour>
      <point x="230.0" y="132.0" type="line" smooth="yes"/>
      <point x="230.0" y="340.0" type="line" smooth="yes"/>
      <point x="231.0" y="324.0" type="line" smooth="yes"/>
      <point x="241.0" y="324.0" type="line" smooth="yes"/>
      <point x="241.0" y="116.0" type="line" smooth="yes"/>
      <point x="240.0" y="132.0" type="line" smooth="yes"/>
    </contour>
  </outline>
</glyph>
<glyph name="segment_l" format="2">
  <outline>
    <contour>
      <point x="260.0" y="132.0" type="line" smooth="yes"/>
      <point x="260.0" y="330.0" type="line" smooth="yes"/>
      <point x="316.0" y="386.0" type="line" smooth="yes"/>
      <point x="372.0" y="330.0" type="line" smooth="yes"/>
      <point x="372.0" y="132.0" type="line" smooth="yes"/>
    </contour>
  </outline>
</glyph>
<glyph name="segment_m" format="2">
  <outline>
    <contour>
      <point x="403.0" y="132.0" type="line" smooth="yes"/>
      <point x="393.0" y="132.0" type="line" smooth="yes"/>
      <point x="392.0" y="116.0" type="line" smooth="yes"/>
      <point x="392.0" y="324.0" type="line" smooth="yes"/>
      <point x="402.0" y="324.0" type="line" smooth="yes"/>
      <point x="403.0" y="340.0" type="line" smooth="yes"/>
    </contour>
  </outline>
</glyph>
<glyph name="segment_r" format="2">
  <advance width="633"/>
  <outline>
    <contour>
      <point x="563.0" y="0.0" type="curve" smooth="yes"/>
      <point x="563.0" y="39.0"/>
      <point x="594.0" y="70.0"/>
      <point x="633.0" y="70.0" type="curve" smooth="yes"/>
      <point x="672.0" y="70.0"/>
      <point x="703.0" y="39.0"/>
      <point x="703.0" y="0.0" type="curve" smooth="yes"/>
      <point x="703.0" y="-39.0"/>
      <point x="672.0" y="-70.0"/>
      <point x="633.0" y="-70.0" type="curve" smooth="yes"/>
      <point x="594.0" y="-70.0"/>
      <point x="563.0" y="-39.0"/>
    </contour>
  </outline>
</glyph>
